<?xml version="1.0" encoding="utf-8"?>
<!-- Generator: Adobe Illustrator 25.4.1, SVG Export Plug-In . SVG Version: 6.00 Build 0)  -->
<svg version="1.1" id="Calque_1" xmlns="http://www.w3.org/2000/svg" xmlns:xlink="http://www.w3.org/1999/xlink" x="0px"
     y="0px"
     viewBox="0 0 150 80" enable-background="new 0 0 150 80" xml:space="preserve">
<g>
	<g>
        <path fill="#000000" d="M99.62,38.85c0.12,1.77,0.09,3.54,0.11,5.31c0,0.48-0.32,0.29-0.5,0.29c-2.7,0.01-5.4,0.01-8.11,0.01
			c-1.61,0-3.23-0.01-4.84,0.01c-0.36,0-0.46-0.09-0.45-0.5c0.03-1.2,0.01-2.41,0.01-3.62c-0.29-0.03-0.46,0.21-0.66,0.35
			c-2.31,1.7-4.71,3.22-7.44,3.91c-3.02,0.76-6.05,0.88-8.98-0.46c-2.06-0.94-3.51-2.6-4.3-4.97c-0.03-0.08-0.07-0.15-0.02-0.24
			c0.21-0.01,0.42-0.04,0.63-0.04c3.99,0,7.98,0,11.97,0c0.23,0,0.46-0.03,0.69-0.05c-0.21,1.37,0.4,2.22,1.66,2.28
			c1.9,0.08,3.42-0.96,5.03-2.22c-0.36,0-0.57,0-0.77,0c-1.98-0.01-3.95-0.03-5.93-0.04c-0.19-0.36-0.14-0.76-0.15-1.14
			c-0.02-1.53-0.01-3.06-0.03-4.59c-0.07-7.07,0.01-14.13,0.14-21.2c0.01-0.55-0.06-0.77-0.63-0.77c-4.25,0.03-8.51,0.03-12.77,0.01
			c-0.44,0-0.53,0.12-0.53,0.61c0.08,6.21,0.19,12.43,0.05,18.64c-0.04,1.95-0.07,3.9,0.11,5.84c0.09,0.92,0.09,1.86,0.53,2.7
			c-0.07-0.12-0.17-0.06-0.26-0.06c-3.22,0-6.44,0-9.74,0c3.79-4.81,5.71-10.33,5.27-16.75c-0.43-6.37-2.81-11.66-7.24-15.67
			c-7.7-6.98-18.93-6.37-26.02,1.32c-6.95,7.54-8.65,21.23-0.59,31.1c-3.44,0-6.85,0-10.27,0c0,0,0.02,0.02,0.02,0.02
			c0-1.07-0.01-2.14,0-3.21c0.06-7.94,0.12-15.88,0.2-23.82c0.01-0.58-0.12-0.72-0.63-0.72c-4.02,0.03-8.04,0.01-12.06,0.01
			c-1.26,0-1.27,0-1.24,1.42c0.15,6.01,0.13,12.03,0.08,18.05c-0.02,2.76-0.08,5.51-0.12,8.27l0.02-0.02
			c-0.62,0-1.25,0.01-1.87,0.01c0-12.78,0-25.56-0.01-38.34C0,0.12,0.05,0,0.47,0c49.69,0.01,99.38,0.01,149.07,0
			c0.42,0,0.47,0.12,0.47,0.55c-0.01,12.78-0.01,25.56-0.01,38.34c-0.8,0-1.59,0-2.41,0c0-0.07-0.02-0.14,0-0.18
			c1.19-3.17,0.81-6.19-0.72-9.08c-0.69-1.3-1.54-2.46-2.48-3.55c-2.34-2.69-4.79-5.25-7.07-8c-0.46-0.56-0.89-1.15-1.31-1.75
			c-0.22-0.32-0.42-0.69-0.58-1.06c-0.65-1.54-0.07-2.65,1.43-2.77c2.48-0.21,4.72,0.56,6.75,2.14c0.48,0.37,0.95,0.76,1.48,1.04
			c0.64,0.33,1.12,0.24,1.51-0.29c0.37-0.51,0.33-1.12-0.11-1.73c-0.34-0.47-0.77-0.81-1.24-1.06c-4.29-2.27-8.72-3.02-13.32-1.4
			c-2.2,0.77-4.15,2.06-5.65,4.08c-2.12,2.85-2.44,6.16-0.93,9.45c0.74,1.63,1.78,3.02,2.81,4.41c2.14,2.89,4.45,5.62,6.71,8.39
			c0.34,0.42,0.67,0.84,1.05,1.33c-3.27,0-6.48,0-9.76,0c1.45,1.7,3.13,2.76,5.02,3.45c1.61,0.59,3.24,1.07,4.96,0.8
			c1.17-0.19,1.58-1.07,1.06-2.27c-0.15-0.35-0.35-0.68-0.55-1c-0.19-0.3-0.41-0.57-0.65-0.91c3.84,0,7.63,0,11.48,0
			c-0.51,1.13-1.2,2.02-2.02,2.79c-1.88,1.77-4.06,2.8-6.46,3.17c-4.17,0.63-8.2,0.07-11.97-2.19c-0.7-0.42-1.39-0.88-1.98-1.49
			c-0.67-0.7-0.73-1.42-0.17-2.32c-1.72,0-3.4,0-5.08,0c0,0,0.02,0.02,0.02,0.02c-0.01-0.87-0.01-1.75-0.02-2.62
			c-0.17-10.39,0.08-20.78,0.05-31.17c0-0.59-0.02-1.18-0.01-1.77c0.01-0.34-0.05-0.49-0.4-0.49c-4.33,0.01-8.66,0.01-12.99,0
			c-0.36,0-0.41,0.16-0.4,0.49c0.01,0.79-0.01,1.57,0,2.36c0.04,6.74,0.11,13.47,0.03,20.21c-0.05,4.33-0.01,8.66-0.02,12.99
			c0,0,0.02-0.02,0.02-0.02c-1.92,0-3.84-0.01-5.76,0.03c-0.46,0.01-0.7-0.08-0.61-0.65c0.02-0.1-0.03-0.21-0.04-0.32
			c0.01-0.06,0.03-0.13,0.03-0.19c0.02-8.69,0.04-17.37,0.08-26.06c0-0.45-0.12-0.53-0.49-0.53c-4.22,0.01-8.43,0.01-12.65,0.01
			c-0.78,0-0.79,0-0.77,0.91c0.13,7.92,0.14,15.84,0.12,23.76c0,1.34-0.24,2.31-1.33,2.92c-0.02,0.01-0.01,0.06-0.02,0.14
			c0.1,0,0.19,0,0.28,0c4.78,0,9.56,0,14.34,0C99.35,38.89,99.48,38.86,99.62,38.85z M8.84,9.08c0.69,0.05,1.51-0.02,2.31-0.15
			c1.2-0.19,2.36-0.52,3.37-1.31c2.01-1.56,1.91-4.57-0.19-5.95c-0.4-0.27-0.83-0.46-1.28-0.61c-2.01-0.65-4.06-0.63-6.12-0.45
			C5.87,0.7,4.82,0.93,3.85,1.47C2.84,2.03,2.11,2.86,1.98,4.19C1.79,6.24,2.6,7.66,4.42,8.41C5.81,8.98,7.25,9.11,8.84,9.08z"/>
        <path fill="#000000" d="M38.07,38.85c-0.1-0.16-0.05-0.34-0.06-0.51c-0.2-11.38-0.07-22.76,0.01-34.14c0-0.37,0.07-0.52,0.42-0.57
			c2.41-0.29,4.78,0,7.06,0.86c6.74,2.52,10.91,7.76,12.16,15.59c1.18,7.32-0.89,13.61-5.75,18.78c0.78,0,1.56,0,2.34,0
			c0.01,0.07,0.02,0.13,0.04,0.2c-5.08,5.36-11.04,7.61-18.1,6.23c0.44,0.5,0.76,0.95,0.8,1.58c0.09,1.21-0.27,1.98-1.25,2.55
			c-1.35,0.77-2.8,0.82-4.26,0.71c-0.7-0.05-1.39-0.17-2.04-0.49C28.46,49.16,28,48.37,28,47.21c0-1.17,0.59-1.85,1.48-2.26
			c0.95-0.44,1.96-0.52,2.97-0.53c0.28,0,0.57,0,0.87-0.05c-1.34-0.68-2.64-1.41-3.87-2.3c-1.22-0.89-2.36-1.89-3.45-3.16
			c0.3,0,0.48,0,0.67,0c3.6,0,7.19,0,10.79,0c0.21,0,0.43,0.06,0.63-0.05c-0.12,1.39,0,2.79-0.06,4.18
			c-0.02,0.53,0.13,0.71,0.6,0.75c4.14,0.32,7.95-0.77,11.42-3.35c0.59-0.43,1.16-0.89,1.75-1.52c-0.3,0-0.49,0-0.68,0
			c-4.14,0-8.27,0-12.41,0C38.49,38.89,38.28,38.86,38.07,38.85z"/>
        <path fill="#000000" d="M85.52,54.35c0.43-0.33,0.78-0.59,1.13-0.85c2.15-1.59,4.47-2.6,7.09-2.53c0.9,0.02,1.77,0.22,2.61,0.57
			c2.27,0.93,3.21,2.89,3.39,5.49c0.16,2.34,0.11,4.68,0.06,7.02c-0.07,3.02,0.06,6.04,0.11,9.05c0.01,0.46-0.04,0.64-0.51,0.64
			c-2.68-0.03-5.36-0.03-8.04,0c-0.43,0-0.5-0.14-0.5-0.58c0.05-3.46,0.1-6.91,0.1-10.37c0-2.6-0.06-5.21-0.1-7.81
			c-0.01-0.73-0.38-1.17-1.04-1.24c-0.54-0.06-1.04,0.09-1.53,0.3c-0.27,0.12-0.53,0.27-0.78,0.43c-1.93,1.17-1.99,1.28-2,3.71
			c-0.02,4.97-0.01,9.93,0.12,14.9c0.01,0.56-0.13,0.67-0.6,0.67c-2.64-0.03-5.28-0.02-7.93,0c-0.41,0-0.51-0.12-0.51-0.58
			c0.05-8.69,0.08-17.37-0.02-26.06c-0.01-1.12,0-1.12,0.96-1.12c2.49,0,4.97,0.01,7.46-0.01c0.42,0,0.55,0.09,0.55,0.6
			c-0.03,2.34-0.01,4.68-0.01,7.02C85.52,53.8,85.52,54.01,85.52,54.35z"/>
        <path fill="#000000" d="M10.87,60.39c0.49-0.5,0.88-0.91,1.27-1.32c1.73-1.79,3.45-3.59,5.3-5.23c1.09-0.96,2.23-1.83,3.62-2.14
			c0.46-0.1,0.92-0.14,1.38,0.04c0.54,0.21,0.76,0.66,0.66,1.28c-0.09,0.51-0.51,0.9-1.01,0.71c-1.65-0.63-2.83,0.35-4.03,1.34
			c-0.86,0.71-0.84,0.71-0.32,1.72c2.22,4.32,4.44,8.64,6.75,12.9c0.76,1.4,1.62,2.71,2.62,3.92c-0.15,0.21-0.33,0.11-0.49,0.11
			c-3.11,0.01-6.22-0.01-9.33,0.02c-0.41,0-0.61-0.16-0.8-0.55c-1.71-3.46-3.34-6.97-5.13-10.39c-0.12-0.24-0.26-0.47-0.48-0.86
			c0,0.53,0,0.87,0,1.2c0.03,3.33,0.06,6.65,0.11,9.98c0.01,0.47-0.07,0.62-0.53,0.62c-2.64-0.03-5.29-0.03-7.93,0
			c-0.46,0-0.57-0.13-0.57-0.64c0.01-6.17,0.15-12.34,0.06-18.51C1.98,51.89,2,49.2,1.97,46.51c-0.01-0.43,0.09-0.54,0.47-0.54
			c2.68,0.02,5.36,0.02,8.05,0c0.42,0,0.51,0.13,0.5,0.58c-0.05,4.33-0.08,8.67-0.11,13C10.87,59.78,10.87,60.01,10.87,60.39z"/>
        <path fill="#000000" d="M134.02,54.3c0.91-0.69,1.74-1.32,2.64-1.82c2.25-1.25,4.57-1.91,7.09-1.27c2.82,0.72,4.23,2.68,4.38,5.96
			c0.13,2.85,0.04,5.69,0.03,8.53c-0.01,2.49-0.01,4.99,0.09,7.48c0.02,0.42-0.08,0.55-0.47,0.55c-2.64-0.02-5.29-0.03-7.93,0
			c-0.48,0.01-0.57-0.16-0.56-0.66c0.15-5.78,0.09-11.55,0.08-17.33c0-1.82-0.63-2.35-2.21-1.88c-1.15,0.34-2.08,1.12-2.98,1.97
			c-0.22,0.21-0.16,0.47-0.16,0.72c0.02,5.49-0.14,10.98,0.01,16.47c0.02,0.58-0.11,0.72-0.63,0.71c-2.6-0.03-5.21-0.03-7.81,0
			c-0.46,0-0.57-0.13-0.56-0.64c0.05-6.54,0.22-13.08,0.04-19.63c-0.02-0.65-0.28-1.51,0.09-1.88c0.32-0.32,1.07-0.09,1.63-0.09
			c2.25,0,4.51,0.01,6.76-0.01c0.36,0,0.51,0.07,0.49,0.52C133.99,52.73,134.02,53.46,134.02,54.3z"/>
        <path fill="#000000" d="M50.69,44.36c-0.06,2.27-0.11,4.43-0.19,6.59c-0.02,0.48,0.08,0.65,0.53,0.6c0.83-0.09,1.67-0.13,2.5-0.16
			c0.55-0.02,0.82,0.28,0.83,0.84c0.01,0.62-0.34,0.78-0.79,0.81c-0.17,0.02-0.35-0.02-0.52-0.03c-0.72-0.05-1.43-0.08-2.15-0.14
			c-0.29-0.02-0.41,0.05-0.41,0.42c0.02,5.56-0.05,11.12,0.12,16.67c0.02,0.56-0.01,1.23,0.55,1.47c0.58,0.25,1.04-0.2,1.44-0.63
			c0.53-0.57,0.89-1.26,1.16-2.02c0.09-0.26,0.18-0.53,0.3-0.78c0.18-0.38,0.42-0.74,0.86-0.59c0.45,0.16,0.44,0.6,0.4,1.03
			c-0.04,0.42-0.17,0.8-0.34,1.18c-1.32,2.91-3.48,4.36-6.33,4.58c-1.03,0.08-2.06,0.02-3.05-0.37c-2.24-0.9-3.5-2.7-3.84-5.34
			c-0.12-0.93-0.13-1.87-0.12-2.82c0-4.09,0-8.19,0.02-12.28c0-0.49-0.1-0.65-0.54-0.6c-0.48,0.05-0.97,0.05-1.45,0.03
			c-0.43-0.02-0.64-0.26-0.62-0.8c0.02-0.53,0.26-0.68,0.66-0.68c0.49,0,0.98-0.04,1.45,0.04c0.47,0.08,0.5-0.13,0.49-0.55
			c-0.01-0.56-0.2-1.25,0.08-1.65c0.26-0.37,0.86-0.44,1.3-0.64C45.65,47.38,48.18,46.04,50.69,44.36z"/>
        <path fill="#000000" d="M116.48,63.32c-1.77,0-3.54,0.01-5.3-0.01c-0.34,0-0.5,0.04-0.5,0.51c0.03,2.28,0,4.55,0.02,6.83
			c0.01,1.58,0.51,2.13,1.9,2.12c2.28,0,4.14-1.14,5.8-2.79c0.76-0.76,1.37-1.67,1.95-2.6c0.28-0.45,0.63-0.72,1.12-0.49
			c0.36,0.16,0.47,0.82,0.26,1.41c-0.24,0.66-0.62,1.21-1.06,1.71c-2.2,2.5-4.85,3.98-7.99,4.17c-4.1,0.25-7.93-2.75-9.5-7.37
			c-2.2-6.46,1-13.72,6.81-15.48c5.45-1.65,11.15,2.46,12.13,8.75c0.14,0.88,0.23,1.77,0.25,2.67c0.01,0.43-0.12,0.5-0.46,0.5
			c-1.81-0.02-3.61-0.01-5.42-0.01C116.48,63.27,116.48,63.3,116.48,63.32z M115.1,57.64c-0.03,0-0.05,0-0.08,0
			c0-1.11,0.02-2.23,0-3.34c-0.03-1.29-0.38-1.82-1.52-1.95c-2.43-0.29-2.8,0.5-2.81,2.57c-0.01,2.17,0.01,4.33-0.01,6.5
			c0,0.4,0.1,0.5,0.44,0.53c1.19,0.08,2.37,0.06,3.55-0.01c0.38-0.02,0.44-0.18,0.43-0.55C115.09,60.14,115.1,58.89,115.1,57.64z"/>
        <path fill="#000000" d="M64.74,63.1c0,2.65,0,5.3,0,7.94c0,1.6,0.44,2.02,1.86,1.81c2.93-0.43,4.99-2.31,6.54-5.03
			c0.14-0.24,0.26-0.48,0.41-0.72c0.18-0.29,0.43-0.48,0.75-0.35c0.33,0.14,0.49,0.43,0.5,0.87c0,0.5-0.21,0.89-0.45,1.25
			c-1.69,2.57-3.87,4.37-6.65,5.06c-5.52,1.37-10.75-2.33-12.1-8.49c-1.38-6.3,1.88-12.63,7.38-14.11c3.2-0.86,6.24-0.34,8.96,1.9
			c0.52,0.43,0.97,0.93,1.35,1.51c0.22,0.33,0.42,0.68,0.45,1.12c0.02,0.34-0.08,0.59-0.35,0.76c-0.28,0.18-0.53,0.09-0.74-0.15
			c-0.17-0.2-0.32-0.43-0.48-0.66c-1.42-2.11-3.33-3.22-5.65-3.41c-1.18-0.1-1.53,0.27-1.68,1.59c-0.2,1.79-0.06,3.58-0.09,5.38
			C64.72,60.6,64.74,61.85,64.74,63.1z"/>
        <path fill="#000000" d="M27.98,62.61c0-3.41,0-6.82,0-10.24c0-0.88,0-0.88,0.75-0.88c2.56,0,5.13,0.01,7.69-0.01
			c0.44,0,0.55,0.12,0.54,0.61c-0.06,5.03-0.1,10.06-0.12,15.09c-0.01,2.01,0.03,4.02,0.08,6.04c0.01,0.42-0.09,0.51-0.44,0.51
			c-2.74-0.01-5.48-0.01-8.22,0c-0.29,0-0.4-0.06-0.38-0.43C28,69.74,28.01,66.18,27.98,62.61z"/>
        <path fill="#000000" d="M15.62,38.88c0.2,1.76,0.11,3.53,0.15,5.29c0,0.18-0.04,0.29-0.22,0.28c-0.08-0.01-0.16,0-0.23,0
			c-4.33,0-8.65,0-12.98,0.01c-0.37,0-0.49-0.09-0.48-0.53c0.03-1.68,0.03-3.36,0.03-5.05c0,0-0.02,0.02-0.02,0.02
			c4.59,0,9.18,0,13.78,0L15.62,38.88z"/>
        <path fill="#000000" d="M119.78,38.88c0,1.68,0,3.37,0.02,5.05c0,0.37-0.03,0.53-0.43,0.53c-4.35-0.02-8.7-0.01-13.05-0.01
			c-0.26,0-0.43,0.01-0.42-0.4c0.06-1.72,0.1-3.45,0.14-5.17c0,0-0.02,0.02-0.02,0.02c4.59,0,9.18,0,13.78,0
			C119.79,38.9,119.78,38.88,119.78,38.88z"/>

	</g>
</g>
</svg>
