<?xml version="1.0" encoding="utf-8"?>
<!-- Generator: Adobe Illustrator 25.4.1, SVG Export Plug-In . SVG Version: 6.00 Build 0)  -->
<svg version="1.1" id="Calque_1" xmlns="http://www.w3.org/2000/svg" xmlns:xlink="http://www.w3.org/1999/xlink" x="0px" y="0px"
	 viewBox="0 0 150 80" enable-background="new 0 0 150 80" xml:space="preserve">
<g>
	<g>
		<path fill="#040405" d="M0.01,84.07c0-15.06,0-30.12,0-45.18c0.62,0,1.25-0.01,1.87-0.01c-0.01,1.68,0,3.36-0.03,5.05
			c-0.01,0.45,0.12,0.53,0.48,0.53c4.33-0.01,8.65-0.01,12.98-0.01c0.08,0,0.16-0.01,0.23,0c0.18,0.01,0.23-0.1,0.22-0.28
			c-0.04-1.76,0.05-3.53-0.15-5.29c3.41,0,6.82,0,10.27,0c-8.06-9.87-6.36-23.56,0.59-31.1c7.09-7.69,18.32-8.29,26.02-1.32
			c4.43,4.01,6.81,9.3,7.24,15.67c0.44,6.42-1.48,11.93-5.27,16.75c3.29,0,6.52,0,9.74,0c0.09,0,0.19-0.06,0.26,0.06
			c0,0-0.02-0.01-0.02-0.01c-0.05,0.09-0.01,0.16,0.02,0.24c0.79,2.36,2.23,4.03,4.3,4.97c2.94,1.33,5.96,1.22,8.98,0.46
			c2.73-0.69,5.12-2.21,7.44-3.91c0.2-0.15,0.37-0.39,0.66-0.35c0,1.22,0.02,2.42-0.01,3.62c-0.01,0.41,0.1,0.51,0.45,0.5
			c1.61-0.02,3.23-0.01,4.84-0.01c2.7,0,5.4,0,8.11-0.01c0.18,0,0.51,0.19,0.5-0.29c-0.02-1.77,0.02-3.54-0.11-5.31
			c0-0.3,0.01-0.61,0.01-0.91c0.01,0.11,0.06,0.22,0.04,0.32c-0.09,0.57,0.15,0.66,0.61,0.65c1.92-0.03,3.84-0.02,5.76-0.03
			c-0.04,1.72-0.08,3.45-0.14,5.17c-0.02,0.41,0.16,0.4,0.42,0.4c4.35,0,8.7-0.01,13.05,0.01c0.39,0,0.43-0.16,0.43-0.53
			c-0.02-1.68-0.02-3.37-0.02-5.05c1.68,0,3.36,0,5.08,0c-0.56,0.91-0.51,1.62,0.17,2.32c0.59,0.61,1.27,1.07,1.98,1.49
			c3.77,2.26,7.79,2.82,11.97,2.19c2.4-0.36,4.59-1.4,6.46-3.17c0.82-0.77,1.52-1.66,2.02-2.79c-3.85,0-7.63,0-11.48,0
			c0.24,0.34,0.46,0.61,0.65,0.91c0.2,0.32,0.4,0.65,0.55,1c0.51,1.2,0.11,2.08-1.06,2.27c-1.72,0.27-3.35-0.21-4.96-0.8
			c-1.89-0.69-3.57-1.76-5.02-3.45c3.29,0,6.5,0,9.76,0c-0.38-0.48-0.71-0.91-1.05-1.33c-2.26-2.77-4.57-5.49-6.71-8.39
			c-1.03-1.39-2.06-2.79-2.81-4.41c-1.51-3.3-1.19-6.61,0.93-9.45c1.5-2.02,3.45-3.31,5.65-4.08c4.6-1.61,9.03-0.87,13.32,1.4
			c0.48,0.25,0.91,0.6,1.24,1.06c0.45,0.61,0.48,1.22,0.11,1.73c-0.39,0.53-0.87,0.63-1.51,0.29c-0.53-0.28-1-0.67-1.48-1.04
			c-2.03-1.58-4.27-2.35-6.75-2.14c-1.51,0.13-2.09,1.24-1.43,2.77c0.16,0.37,0.35,0.73,0.58,1.06c0.42,0.6,0.85,1.19,1.31,1.75
			c2.28,2.76,4.73,5.32,7.07,8c0.94,1.08,1.79,2.25,2.48,3.55c1.53,2.89,1.91,5.91,0.72,9.08c-0.02,0.05,0,0.11,0,0.18
			c0.82,0,1.62,0,2.41,0c0,15.06,0,30.12,0,45.18C100,84.07,50,84.07,0.01,84.07z M38.08,38.83c-0.2,0.11-0.42,0.05-0.63,0.05
			c-3.6,0-7.19,0-10.79,0c-0.19,0-0.37,0-0.67,0c1.09,1.28,2.23,2.27,3.45,3.16c1.22,0.9,2.53,1.63,3.87,2.3
			c-0.3,0.05-0.58,0.05-0.87,0.05c-1.01,0.01-2.02,0.09-2.97,0.53C28.59,45.35,28,46.03,28,47.21c0,1.17,0.46,1.95,1.45,2.44
			c0.65,0.32,1.34,0.43,2.04,0.49c1.46,0.11,2.92,0.06,4.26-0.71c0.99-0.56,1.34-1.34,1.25-2.55c-0.05-0.63-0.37-1.07-0.8-1.58
			c7.06,1.38,13.02-0.87,18.1-6.23c-0.01-0.07-0.02-0.13-0.04-0.2c-0.78,0-1.55,0-2.34,0c4.86-5.17,6.92-11.46,5.75-18.78
			c-1.26-7.82-5.42-13.06-12.16-15.59c-2.29-0.86-4.65-1.14-7.06-0.86c-0.35,0.04-0.42,0.19-0.42,0.57
			c-0.08,11.38-0.21,22.76-0.01,34.14c0,0.17-0.04,0.35,0.06,0.51L38.08,38.83z M85.52,54.35c0-0.34,0-0.55,0-0.76
			c0-2.34-0.02-4.68,0.01-7.02c0.01-0.51-0.13-0.6-0.55-0.6c-2.49,0.02-4.97,0.01-7.46,0.01c-0.96,0-0.98,0-0.96,1.12
			c0.11,8.69,0.07,17.37,0.02,26.06c0,0.46,0.1,0.58,0.51,0.58c2.64-0.02,5.29-0.03,7.93,0c0.47,0.01,0.62-0.1,0.6-0.67
			c-0.13-4.96-0.14-9.93-0.12-14.9c0.01-2.42,0.07-2.54,2-3.71c0.25-0.15,0.51-0.31,0.78-0.43c0.49-0.21,1-0.37,1.53-0.3
			c0.66,0.07,1.03,0.51,1.04,1.24c0.04,2.6,0.1,5.21,0.1,7.81c0,3.46-0.05,6.91-0.1,10.37c-0.01,0.44,0.07,0.59,0.5,0.58
			c2.68-0.02,5.36-0.03,8.04,0c0.47,0,0.51-0.17,0.51-0.64c-0.04-3.02-0.17-6.03-0.11-9.05c0.05-2.34,0.1-4.68-0.06-7.02
			c-0.18-2.6-1.11-4.56-3.39-5.49c-0.84-0.35-1.72-0.54-2.61-0.57c-2.62-0.07-4.94,0.94-7.09,2.53
			C86.3,53.76,85.95,54.03,85.52,54.35z M10.87,60.39c0-0.38,0-0.61,0-0.84c0.03-4.33,0.06-8.67,0.11-13
			c0.01-0.45-0.08-0.58-0.5-0.58c-2.68,0.02-5.36,0.02-8.05,0c-0.38,0-0.47,0.11-0.47,0.54C2,49.2,1.98,51.89,2.02,54.58
			c0.09,6.17-0.06,12.34-0.06,18.51c0,0.52,0.11,0.65,0.57,0.64c2.64-0.03,5.29-0.03,7.93,0c0.45,0,0.53-0.15,0.53-0.62
			c-0.05-3.33-0.08-6.65-0.11-9.98c0-0.34,0-0.68,0-1.2c0.22,0.4,0.36,0.63,0.48,0.86c1.79,3.41,3.43,6.92,5.13,10.39
			c0.19,0.39,0.39,0.55,0.8,0.55c3.11-0.02,6.22-0.01,9.33-0.02c0.16,0,0.34,0.1,0.49-0.11c-0.99-1.21-1.86-2.52-2.62-3.92
			c-2.31-4.26-4.53-8.59-6.75-12.9c-0.52-1.01-0.54-1.01,0.32-1.72c1.2-0.99,2.38-1.97,4.03-1.34c0.5,0.19,0.92-0.2,1.01-0.71
			c0.11-0.62-0.12-1.07-0.66-1.28c-0.46-0.18-0.92-0.14-1.38-0.04c-1.39,0.31-2.53,1.17-3.62,2.14c-1.85,1.64-3.57,3.44-5.3,5.23
			C11.75,59.47,11.36,59.88,10.87,60.39z M134.02,54.3c0-0.84-0.03-1.57,0.01-2.29c0.02-0.45-0.13-0.53-0.49-0.52
			c-2.25,0.02-4.51,0.01-6.76,0.01c-0.56,0-1.32-0.22-1.63,0.09c-0.37,0.37-0.1,1.23-0.09,1.88c0.18,6.54,0.01,13.09-0.04,19.63
			c0,0.51,0.11,0.65,0.56,0.64c2.6-0.03,5.21-0.03,7.81,0c0.51,0.01,0.64-0.13,0.63-0.71c-0.15-5.49,0.01-10.98-0.01-16.47
			c0-0.25-0.06-0.51,0.16-0.72c0.89-0.85,1.83-1.63,2.98-1.97c1.58-0.47,2.2,0.06,2.21,1.88c0.01,5.78,0.07,11.56-0.08,17.33
			c-0.01,0.51,0.08,0.67,0.56,0.66c2.64-0.03,5.29-0.02,7.93,0c0.39,0,0.49-0.13,0.47-0.55c-0.1-2.49-0.1-4.99-0.09-7.48
			c0.01-2.84,0.1-5.69-0.03-8.53c-0.15-3.28-1.56-5.24-4.38-5.96c-2.51-0.64-4.84,0.02-7.09,1.27
			C135.76,52.98,134.92,53.61,134.02,54.3z M50.69,44.36c-2.5,1.68-5.04,3.02-7.65,4.19c-0.45,0.2-1.04,0.27-1.3,0.64
			c-0.28,0.4-0.09,1.09-0.08,1.65c0.01,0.42-0.03,0.63-0.49,0.55c-0.47-0.08-0.97-0.04-1.45-0.04c-0.4,0-0.65,0.15-0.66,0.68
			c-0.02,0.53,0.19,0.78,0.62,0.8c0.48,0.02,0.97,0.02,1.45-0.03c0.44-0.05,0.54,0.11,0.54,0.6c-0.02,4.09-0.02,8.19-0.02,12.28
			c0,0.94,0,1.88,0.12,2.82c0.35,2.64,1.6,4.44,3.84,5.34c0.99,0.4,2.02,0.45,3.05,0.37c2.85-0.22,5.01-1.66,6.33-4.58
			c0.17-0.37,0.3-0.75,0.34-1.18c0.04-0.43,0.06-0.87-0.4-1.03c-0.45-0.16-0.68,0.21-0.86,0.59c-0.12,0.25-0.2,0.52-0.3,0.78
			c-0.27,0.76-0.63,1.45-1.16,2.02c-0.4,0.43-0.85,0.88-1.44,0.63c-0.56-0.24-0.53-0.91-0.55-1.47c-0.17-5.56-0.1-11.12-0.12-16.67
			c0-0.37,0.12-0.45,0.41-0.42c0.72,0.06,1.43,0.09,2.15,0.14c0.17,0.01,0.35,0.05,0.52,0.03c0.44-0.04,0.8-0.19,0.79-0.81
			c-0.01-0.55-0.28-0.86-0.83-0.84c-0.83,0.03-1.67,0.07-2.5,0.16c-0.45,0.05-0.55-0.12-0.53-0.6
			C50.58,48.8,50.63,46.63,50.69,44.36z M116.48,63.32c0-0.02,0-0.05,0-0.07c1.81,0,3.61-0.01,5.42,0.01c0.34,0,0.47-0.07,0.46-0.5
			c-0.02-0.9-0.11-1.79-0.25-2.67c-0.98-6.29-6.68-10.39-12.13-8.75c-5.81,1.76-9,9.02-6.81,15.48c1.57,4.61,5.39,7.62,9.5,7.37
			c3.14-0.19,5.79-1.67,7.99-4.17c0.44-0.5,0.82-1.05,1.06-1.71c0.21-0.59,0.1-1.25-0.26-1.41c-0.49-0.22-0.84,0.04-1.12,0.49
			c-0.58,0.93-1.19,1.84-1.95,2.6c-1.66,1.65-3.51,2.79-5.8,2.79c-1.4,0-1.89-0.54-1.9-2.12c-0.01-2.28,0.01-4.55-0.02-6.83
			c-0.01-0.47,0.15-0.51,0.5-0.51C112.94,63.33,114.71,63.32,116.48,63.32z M64.74,63.1c0-1.25-0.02-2.49,0-3.74
			c0.03-1.79-0.11-3.59,0.09-5.38c0.15-1.32,0.49-1.69,1.68-1.59c2.32,0.2,4.23,1.3,5.65,3.41c0.15,0.23,0.3,0.46,0.48,0.66
			c0.2,0.24,0.45,0.33,0.74,0.15c0.27-0.17,0.37-0.42,0.35-0.76c-0.03-0.44-0.23-0.79-0.45-1.12c-0.39-0.58-0.84-1.08-1.35-1.51
			c-2.72-2.24-5.75-2.77-8.96-1.9c-5.5,1.48-8.76,7.81-7.38,14.11c1.35,6.16,6.58,9.85,12.1,8.49c2.79-0.69,4.97-2.49,6.65-5.06
			c0.24-0.36,0.45-0.75,0.45-1.25c0-0.44-0.16-0.73-0.5-0.87c-0.31-0.13-0.57,0.06-0.75,0.35c-0.14,0.23-0.27,0.48-0.41,0.72
			c-1.55,2.72-3.6,4.6-6.54,5.03c-1.43,0.21-1.86-0.22-1.86-1.81C64.74,68.4,64.74,65.75,64.74,63.1z M27.98,62.61
			c0.03,3.57,0.02,7.13-0.1,10.7c-0.01,0.37,0.09,0.43,0.38,0.43c2.74-0.01,5.48-0.01,8.22,0c0.35,0,0.45-0.09,0.44-0.51
			c-0.05-2.01-0.09-4.02-0.08-6.04c0.02-5.03,0.07-10.06,0.12-15.09c0.01-0.49-0.1-0.62-0.54-0.61c-2.56,0.03-5.13,0.01-7.69,0.01
			c-0.75,0-0.75,0-0.75,0.88C27.98,55.79,27.98,59.2,27.98,62.61z"/>
		<path fill="#FEFEFE" d="M99.62,38.85c0.12,1.77,0.09,3.54,0.11,5.31c0,0.48-0.32,0.29-0.5,0.29c-2.7,0.01-5.4,0.01-8.11,0.01
			c-1.61,0-3.23-0.01-4.84,0.01c-0.36,0-0.46-0.09-0.45-0.5c0.03-1.2,0.01-2.41,0.01-3.62c-0.29-0.03-0.46,0.21-0.66,0.35
			c-2.31,1.7-4.71,3.22-7.44,3.91c-3.02,0.76-6.05,0.88-8.98-0.46c-2.06-0.94-3.51-2.6-4.3-4.97c-0.03-0.08-0.07-0.15-0.02-0.24
			c0.21-0.01,0.42-0.04,0.63-0.04c3.99,0,7.98,0,11.97,0c0.23,0,0.46-0.03,0.69-0.05c-0.21,1.37,0.4,2.22,1.66,2.28
			c1.9,0.08,3.42-0.96,5.03-2.22c-0.36,0-0.57,0-0.77,0c-1.98-0.01-3.95-0.03-5.93-0.04c-0.19-0.36-0.14-0.76-0.15-1.14
			c-0.02-1.53-0.01-3.06-0.03-4.59c-0.07-7.07,0.01-14.13,0.14-21.2c0.01-0.55-0.06-0.77-0.63-0.77c-4.25,0.03-8.51,0.03-12.77,0.01
			c-0.44,0-0.53,0.12-0.53,0.61c0.08,6.21,0.19,12.43,0.05,18.64c-0.04,1.95-0.07,3.9,0.11,5.84c0.09,0.92,0.09,1.86,0.53,2.7
			c-0.07-0.12-0.17-0.06-0.26-0.06c-3.22,0-6.44,0-9.74,0c3.79-4.81,5.71-10.33,5.27-16.75c-0.43-6.37-2.81-11.66-7.24-15.67
			c-7.7-6.98-18.93-6.37-26.02,1.32c-6.95,7.54-8.65,21.23-0.59,31.1c-3.44,0-6.85,0-10.27,0c0,0,0.02,0.02,0.02,0.02
			c0-1.07-0.01-2.14,0-3.21c0.06-7.94,0.12-15.88,0.2-23.82c0.01-0.58-0.12-0.72-0.63-0.72c-4.02,0.03-8.04,0.01-12.06,0.01
			c-1.26,0-1.27,0-1.24,1.42c0.15,6.01,0.13,12.03,0.08,18.05c-0.02,2.76-0.08,5.51-0.12,8.27l0.02-0.02
			c-0.62,0-1.25,0.01-1.87,0.01c0-12.78,0-25.56-0.01-38.34C0,0.12,0.05,0,0.47,0c49.69,0.01,99.38,0.01,149.07,0
			c0.42,0,0.47,0.12,0.47,0.55c-0.01,12.78-0.01,25.56-0.01,38.34c-0.8,0-1.59,0-2.41,0c0-0.07-0.02-0.14,0-0.18
			c1.19-3.17,0.81-6.19-0.72-9.08c-0.69-1.3-1.54-2.46-2.48-3.55c-2.34-2.69-4.79-5.25-7.07-8c-0.46-0.56-0.89-1.15-1.31-1.75
			c-0.22-0.32-0.42-0.69-0.58-1.06c-0.65-1.54-0.07-2.65,1.43-2.77c2.48-0.21,4.72,0.56,6.75,2.14c0.48,0.37,0.95,0.76,1.48,1.04
			c0.64,0.33,1.12,0.24,1.51-0.29c0.37-0.51,0.33-1.12-0.11-1.73c-0.34-0.47-0.77-0.81-1.24-1.06c-4.29-2.27-8.72-3.02-13.32-1.4
			c-2.2,0.77-4.15,2.06-5.65,4.08c-2.12,2.85-2.44,6.16-0.93,9.45c0.74,1.63,1.78,3.02,2.81,4.41c2.14,2.89,4.45,5.62,6.71,8.39
			c0.34,0.42,0.67,0.84,1.05,1.33c-3.27,0-6.48,0-9.76,0c1.45,1.7,3.13,2.76,5.02,3.45c1.61,0.59,3.24,1.07,4.96,0.8
			c1.17-0.19,1.58-1.07,1.06-2.27c-0.15-0.35-0.35-0.68-0.55-1c-0.19-0.3-0.41-0.57-0.65-0.91c3.84,0,7.63,0,11.48,0
			c-0.51,1.13-1.2,2.02-2.02,2.79c-1.88,1.77-4.06,2.8-6.46,3.17c-4.17,0.63-8.2,0.07-11.97-2.19c-0.7-0.42-1.39-0.88-1.98-1.49
			c-0.67-0.7-0.73-1.42-0.17-2.32c-1.72,0-3.4,0-5.08,0c0,0,0.02,0.02,0.02,0.02c-0.01-0.87-0.01-1.75-0.02-2.62
			c-0.17-10.39,0.08-20.78,0.05-31.17c0-0.59-0.02-1.18-0.01-1.77c0.01-0.34-0.05-0.49-0.4-0.49c-4.33,0.01-8.66,0.01-12.99,0
			c-0.36,0-0.41,0.16-0.4,0.49c0.01,0.79-0.01,1.57,0,2.36c0.04,6.74,0.11,13.47,0.03,20.21c-0.05,4.33-0.01,8.66-0.02,12.99
			c0,0,0.02-0.02,0.02-0.02c-1.92,0-3.84-0.01-5.76,0.03c-0.46,0.01-0.7-0.08-0.61-0.65c0.02-0.1-0.03-0.21-0.04-0.32
			c0.01-0.06,0.03-0.13,0.03-0.19c0.02-8.69,0.04-17.37,0.08-26.06c0-0.45-0.12-0.53-0.49-0.53c-4.22,0.01-8.43,0.01-12.65,0.01
			c-0.78,0-0.79,0-0.77,0.91c0.13,7.92,0.14,15.84,0.12,23.76c0,1.34-0.24,2.31-1.33,2.92c-0.02,0.01-0.01,0.06-0.02,0.14
			c0.1,0,0.19,0,0.28,0c4.78,0,9.56,0,14.34,0C99.35,38.89,99.48,38.86,99.62,38.85z M8.84,9.08c0.69,0.05,1.51-0.02,2.31-0.15
			c1.2-0.19,2.36-0.52,3.37-1.31c2.01-1.56,1.91-4.57-0.19-5.95c-0.4-0.27-0.83-0.46-1.28-0.61c-2.01-0.65-4.06-0.63-6.12-0.45
			C5.87,0.7,4.82,0.93,3.85,1.47C2.84,2.03,2.11,2.86,1.98,4.19C1.79,6.24,2.6,7.66,4.42,8.41C5.81,8.98,7.25,9.11,8.84,9.08z"/>
		<path fill="#FEFEFE" d="M0.01,84.07c49.99,0,99.99,0,149.98,0c-0.03,0.04,0.06,0.14-0.06,0.13c-0.16-0.01-0.31,0-0.47,0
			c-49.64,0-99.29,0-148.93-0.01C0.36,84.19,0.14,84.35,0.01,84.07z"/>
		<path fill="#FEFEFE" d="M38.07,38.85c-0.1-0.16-0.05-0.34-0.06-0.51c-0.2-11.38-0.07-22.76,0.01-34.14c0-0.37,0.07-0.52,0.42-0.57
			c2.41-0.29,4.78,0,7.06,0.86c6.74,2.52,10.91,7.76,12.16,15.59c1.18,7.32-0.89,13.61-5.75,18.78c0.78,0,1.56,0,2.34,0
			c0.01,0.07,0.02,0.13,0.04,0.2c-5.08,5.36-11.04,7.61-18.1,6.23c0.44,0.5,0.76,0.95,0.8,1.58c0.09,1.21-0.27,1.98-1.25,2.55
			c-1.35,0.77-2.8,0.82-4.26,0.71c-0.7-0.05-1.39-0.17-2.04-0.49C28.46,49.16,28,48.37,28,47.21c0-1.17,0.59-1.85,1.48-2.26
			c0.95-0.44,1.96-0.52,2.97-0.53c0.28,0,0.57,0,0.87-0.05c-1.34-0.68-2.64-1.41-3.87-2.3c-1.22-0.89-2.36-1.89-3.45-3.16
			c0.3,0,0.48,0,0.67,0c3.6,0,7.19,0,10.79,0c0.21,0,0.43,0.06,0.63-0.05c-0.12,1.39,0,2.79-0.06,4.18
			c-0.02,0.53,0.13,0.71,0.6,0.75c4.14,0.32,7.95-0.77,11.42-3.35c0.59-0.43,1.16-0.89,1.75-1.52c-0.3,0-0.49,0-0.68,0
			c-4.14,0-8.27,0-12.41,0C38.49,38.89,38.28,38.86,38.07,38.85z"/>
		<path fill="#FEFEFE" d="M85.52,54.35c0.43-0.33,0.78-0.59,1.13-0.85c2.15-1.59,4.47-2.6,7.09-2.53c0.9,0.02,1.77,0.22,2.61,0.57
			c2.27,0.93,3.21,2.89,3.39,5.49c0.16,2.34,0.11,4.68,0.06,7.02c-0.07,3.02,0.06,6.04,0.11,9.05c0.01,0.46-0.04,0.64-0.51,0.64
			c-2.68-0.03-5.36-0.03-8.04,0c-0.43,0-0.5-0.14-0.5-0.58c0.05-3.46,0.1-6.91,0.1-10.37c0-2.6-0.06-5.21-0.1-7.81
			c-0.01-0.73-0.38-1.17-1.04-1.24c-0.54-0.06-1.04,0.09-1.53,0.3c-0.27,0.12-0.53,0.27-0.78,0.43c-1.93,1.17-1.99,1.28-2,3.71
			c-0.02,4.97-0.01,9.93,0.12,14.9c0.01,0.56-0.13,0.67-0.6,0.67c-2.64-0.03-5.28-0.02-7.93,0c-0.41,0-0.51-0.12-0.51-0.58
			c0.05-8.69,0.08-17.37-0.02-26.06c-0.01-1.12,0-1.12,0.96-1.12c2.49,0,4.97,0.01,7.46-0.01c0.42,0,0.55,0.09,0.55,0.6
			c-0.03,2.34-0.01,4.68-0.01,7.02C85.52,53.8,85.52,54.01,85.52,54.35z"/>
		<path fill="#FEFEFE" d="M10.87,60.39c0.49-0.5,0.88-0.91,1.27-1.32c1.73-1.79,3.45-3.59,5.3-5.23c1.09-0.96,2.23-1.83,3.62-2.14
			c0.46-0.1,0.92-0.14,1.38,0.04c0.54,0.21,0.76,0.66,0.66,1.28c-0.09,0.51-0.51,0.9-1.01,0.71c-1.65-0.63-2.83,0.35-4.03,1.34
			c-0.86,0.71-0.84,0.71-0.32,1.72c2.22,4.32,4.44,8.64,6.75,12.9c0.76,1.4,1.62,2.71,2.62,3.92c-0.15,0.21-0.33,0.11-0.49,0.11
			c-3.11,0.01-6.22-0.01-9.33,0.02c-0.41,0-0.61-0.16-0.8-0.55c-1.71-3.46-3.34-6.97-5.13-10.39c-0.12-0.24-0.26-0.47-0.48-0.86
			c0,0.53,0,0.87,0,1.2c0.03,3.33,0.06,6.65,0.11,9.98c0.01,0.47-0.07,0.62-0.53,0.62c-2.64-0.03-5.29-0.03-7.93,0
			c-0.46,0-0.57-0.13-0.57-0.64c0.01-6.17,0.15-12.34,0.06-18.51C1.98,51.89,2,49.2,1.97,46.51c-0.01-0.43,0.09-0.54,0.47-0.54
			c2.68,0.02,5.36,0.02,8.05,0c0.42,0,0.51,0.13,0.5,0.58c-0.05,4.33-0.08,8.67-0.11,13C10.87,59.78,10.87,60.01,10.87,60.39z"/>
		<path fill="#FEFEFE" d="M134.02,54.3c0.91-0.69,1.74-1.32,2.64-1.82c2.25-1.25,4.57-1.91,7.09-1.27c2.82,0.72,4.23,2.68,4.38,5.96
			c0.13,2.85,0.04,5.69,0.03,8.53c-0.01,2.49-0.01,4.99,0.09,7.48c0.02,0.42-0.08,0.55-0.47,0.55c-2.64-0.02-5.29-0.03-7.93,0
			c-0.48,0.01-0.57-0.16-0.56-0.66c0.15-5.78,0.09-11.55,0.08-17.33c0-1.82-0.63-2.35-2.21-1.88c-1.15,0.34-2.08,1.12-2.98,1.97
			c-0.22,0.21-0.16,0.47-0.16,0.72c0.02,5.49-0.14,10.98,0.01,16.47c0.02,0.58-0.11,0.72-0.63,0.71c-2.6-0.03-5.21-0.03-7.81,0
			c-0.46,0-0.57-0.13-0.56-0.64c0.05-6.54,0.22-13.08,0.04-19.63c-0.02-0.65-0.28-1.51,0.09-1.88c0.32-0.32,1.07-0.09,1.63-0.09
			c2.25,0,4.51,0.01,6.76-0.01c0.36,0,0.51,0.07,0.49,0.52C133.99,52.73,134.02,53.46,134.02,54.3z"/>
		<path fill="#030304" d="M99.62,38.85c-0.13,0.01-0.27,0.04-0.4,0.04c-4.78,0-9.56,0-14.34,0c-0.09,0-0.18,0-0.28,0
			c0.01-0.08,0.01-0.13,0.02-0.14c1.08-0.61,1.32-1.58,1.33-2.92c0.03-7.92,0.01-15.84-0.12-23.76c-0.02-0.91-0.01-0.91,0.77-0.91
			c4.22,0,8.43,0.01,12.65-0.01c0.37,0,0.49,0.08,0.49,0.53c-0.04,8.69-0.05,17.37-0.08,26.06c0,0.06-0.02,0.13-0.03,0.19
			C99.62,38.24,99.62,38.54,99.62,38.85z"/>
		<path fill="#FEFEFE" d="M50.69,44.36c-0.06,2.27-0.11,4.43-0.19,6.59c-0.02,0.48,0.08,0.65,0.53,0.6c0.83-0.09,1.67-0.13,2.5-0.16
			c0.55-0.02,0.82,0.28,0.83,0.84c0.01,0.62-0.34,0.78-0.79,0.81c-0.17,0.02-0.35-0.02-0.52-0.03c-0.72-0.05-1.43-0.08-2.15-0.14
			c-0.29-0.02-0.41,0.05-0.41,0.42c0.02,5.56-0.05,11.12,0.12,16.67c0.02,0.56-0.01,1.23,0.55,1.47c0.58,0.25,1.04-0.2,1.44-0.63
			c0.53-0.57,0.89-1.26,1.16-2.02c0.09-0.26,0.18-0.53,0.3-0.78c0.18-0.38,0.42-0.74,0.86-0.59c0.45,0.16,0.44,0.6,0.4,1.03
			c-0.04,0.42-0.17,0.8-0.34,1.18c-1.32,2.91-3.48,4.36-6.33,4.58c-1.03,0.08-2.06,0.02-3.05-0.37c-2.24-0.9-3.5-2.7-3.84-5.34
			c-0.12-0.93-0.13-1.87-0.12-2.82c0-4.09,0-8.19,0.02-12.28c0-0.49-0.1-0.65-0.54-0.6c-0.48,0.05-0.97,0.05-1.45,0.03
			c-0.43-0.02-0.64-0.26-0.62-0.8c0.02-0.53,0.26-0.68,0.66-0.68c0.49,0,0.98-0.04,1.45,0.04c0.47,0.08,0.5-0.13,0.49-0.55
			c-0.01-0.56-0.2-1.25,0.08-1.65c0.26-0.37,0.86-0.44,1.3-0.64C45.65,47.38,48.18,46.04,50.69,44.36z"/>
		<path fill="#FEFEFE" d="M116.48,63.32c-1.77,0-3.54,0.01-5.3-0.01c-0.34,0-0.5,0.04-0.5,0.51c0.03,2.28,0,4.55,0.02,6.83
			c0.01,1.58,0.51,2.13,1.9,2.12c2.28,0,4.14-1.14,5.8-2.79c0.76-0.76,1.37-1.67,1.95-2.6c0.28-0.45,0.63-0.72,1.12-0.49
			c0.36,0.16,0.47,0.82,0.26,1.41c-0.24,0.66-0.62,1.21-1.06,1.71c-2.2,2.5-4.85,3.98-7.99,4.17c-4.1,0.25-7.93-2.75-9.5-7.37
			c-2.2-6.46,1-13.72,6.81-15.48c5.45-1.65,11.15,2.46,12.13,8.75c0.14,0.88,0.23,1.77,0.25,2.67c0.01,0.43-0.12,0.5-0.46,0.5
			c-1.81-0.02-3.61-0.01-5.42-0.01C116.48,63.27,116.48,63.3,116.48,63.32z M115.1,57.64c-0.03,0-0.05,0-0.08,0
			c0-1.11,0.02-2.23,0-3.34c-0.03-1.29-0.38-1.82-1.52-1.95c-2.43-0.29-2.8,0.5-2.81,2.57c-0.01,2.17,0.01,4.33-0.01,6.5
			c0,0.4,0.1,0.5,0.44,0.53c1.19,0.08,2.37,0.06,3.55-0.01c0.38-0.02,0.44-0.18,0.43-0.55C115.09,60.14,115.1,58.89,115.1,57.64z"/>
		<path fill="#FEFEFE" d="M64.74,63.1c0,2.65,0,5.3,0,7.94c0,1.6,0.44,2.02,1.86,1.81c2.93-0.43,4.99-2.31,6.54-5.03
			c0.14-0.24,0.26-0.48,0.41-0.72c0.18-0.29,0.43-0.48,0.75-0.35c0.33,0.14,0.49,0.43,0.5,0.87c0,0.5-0.21,0.89-0.45,1.25
			c-1.69,2.57-3.87,4.37-6.65,5.06c-5.52,1.37-10.75-2.33-12.1-8.49c-1.38-6.3,1.88-12.63,7.38-14.11c3.2-0.86,6.24-0.34,8.96,1.9
			c0.52,0.43,0.97,0.93,1.35,1.51c0.22,0.33,0.42,0.68,0.45,1.12c0.02,0.34-0.08,0.59-0.35,0.76c-0.28,0.18-0.53,0.09-0.74-0.15
			c-0.17-0.2-0.32-0.43-0.48-0.66c-1.42-2.11-3.33-3.22-5.65-3.41c-1.18-0.1-1.53,0.27-1.68,1.59c-0.2,1.79-0.06,3.58-0.09,5.38
			C64.72,60.6,64.74,61.85,64.74,63.1z"/>
		<path fill="#FEFEFE" d="M27.98,62.61c0-3.41,0-6.82,0-10.24c0-0.88,0-0.88,0.75-0.88c2.56,0,5.13,0.01,7.69-0.01
			c0.44,0,0.55,0.12,0.54,0.61c-0.06,5.03-0.1,10.06-0.12,15.09c-0.01,2.01,0.03,4.02,0.08,6.04c0.01,0.42-0.09,0.51-0.44,0.51
			c-2.74-0.01-5.48-0.01-8.22,0c-0.29,0-0.4-0.06-0.38-0.43C28,69.74,28.01,66.18,27.98,62.61z"/>
		<path fill="#FEFEFE" d="M15.62,38.88c0.2,1.76,0.11,3.53,0.15,5.29c0,0.18-0.04,0.29-0.22,0.28c-0.08-0.01-0.16,0-0.23,0
			c-4.33,0-8.65,0-12.98,0.01c-0.37,0-0.49-0.09-0.48-0.53c0.03-1.68,0.03-3.36,0.03-5.05c0,0-0.02,0.02-0.02,0.02
			c4.59,0,9.18,0,13.78,0L15.62,38.88z"/>
		<path fill="#FEFEFE" d="M119.78,38.88c0,1.68,0,3.37,0.02,5.05c0,0.37-0.03,0.53-0.43,0.53c-4.35-0.02-8.7-0.01-13.05-0.01
			c-0.26,0-0.43,0.01-0.42-0.4c0.06-1.72,0.1-3.45,0.14-5.17c0,0-0.02,0.02-0.02,0.02c4.59,0,9.18,0,13.78,0
			C119.79,38.9,119.78,38.88,119.78,38.88z"/>
		<path fill="#030304" d="M119.79,38.9c-4.59,0-9.18,0-13.78,0c0-4.33-0.04-8.66,0.02-12.99c0.08-6.74,0.01-13.47-0.03-20.21
			c-0.01-0.79,0.02-1.58,0-2.36c-0.01-0.34,0.04-0.5,0.4-0.49c4.33,0.01,8.66,0.01,12.99,0c0.35,0,0.41,0.15,0.4,0.49
			c-0.01,0.59,0.01,1.18,0.01,1.77c0.03,10.39-0.21,20.78-0.05,31.17C119.78,37.15,119.78,38.02,119.79,38.9z"/>
		<path fill="#030304" d="M15.64,38.9c-4.59,0-9.18,0-13.78,0c0.04-2.76,0.1-5.51,0.12-8.27c0.05-6.02,0.07-12.03-0.08-18.05
			c-0.04-1.42-0.02-1.42,1.24-1.42c4.02,0,8.04,0.01,12.06-0.01c0.51,0,0.64,0.14,0.63,0.72c-0.08,7.94-0.14,15.88-0.2,23.82
			C15.63,36.76,15.64,37.83,15.64,38.9z"/>
		<path fill="#030304" d="M77.74,38.84c-0.23,0.02-0.46,0.05-0.69,0.05c-3.99,0-7.98,0-11.97,0c-0.21,0-0.42,0.02-0.63,0.04
			c0,0,0.02,0.01,0.02,0.01c-0.43-0.83-0.44-1.78-0.52-2.7c-0.18-1.94-0.15-3.89-0.11-5.84c0.13-6.21,0.03-12.43-0.05-18.64
			c-0.01-0.49,0.08-0.61,0.53-0.61c4.26,0.02,8.51,0.03,12.77-0.01c0.57,0,0.64,0.22,0.63,0.77c-0.14,7.07-0.21,14.13-0.14,21.2
			c0.01,1.53,0.01,3.06,0.03,4.59c0,0.38-0.05,0.79,0.15,1.14L77.74,38.84z"/>
		<path fill="#040405" d="M8.84,9.08c-1.59,0.03-3.04-0.1-4.42-0.67C2.6,7.66,1.79,6.24,1.98,4.19c0.13-1.33,0.86-2.16,1.87-2.72
			C4.82,0.93,5.87,0.7,6.94,0.61c2.06-0.18,4.11-0.19,6.12,0.45c0.45,0.14,0.88,0.34,1.28,0.61c2.1,1.38,2.2,4.4,0.19,5.95
			c-1.02,0.79-2.18,1.11-3.37,1.31C10.35,9.06,9.53,9.12,8.84,9.08z"/>
		<path fill="#040405" d="M77.72,38.85c1.98,0.01,3.95,0.03,5.93,0.04c0.21,0,0.41,0,0.77,0c-1.61,1.26-3.13,2.3-5.03,2.22
			c-1.26-0.05-1.87-0.91-1.66-2.28C77.74,38.84,77.72,38.85,77.72,38.85z"/>
		<path fill="#040405" d="M38.07,38.85c0.21,0.01,0.42,0.04,0.63,0.04c4.14,0,8.27,0,12.41,0c0.19,0,0.38,0,0.68,0
			c-0.59,0.63-1.17,1.09-1.75,1.52c-3.47,2.57-7.28,3.67-11.42,3.35c-0.47-0.04-0.62-0.21-0.6-0.75c0.06-1.39-0.06-2.79,0.06-4.18
			C38.08,38.83,38.07,38.85,38.07,38.85z"/>
		<path fill="#040405" d="M115.1,57.64c0,1.25-0.01,2.5,0.01,3.74c0.01,0.38-0.06,0.53-0.43,0.55c-1.19,0.06-2.37,0.08-3.55,0.01
			c-0.35-0.02-0.45-0.12-0.44-0.53c0.02-2.17,0-4.33,0.01-6.5c0.01-2.07,0.38-2.85,2.81-2.57c1.14,0.13,1.49,0.66,1.52,1.95
			c0.02,1.11,0,2.23,0,3.34C115.05,57.64,115.08,57.64,115.1,57.64z"/>
	</g>
</g>
</svg>
